<svg width="500" height="500" viewBox="0 0 500 500" fill="none" xmlns="http://www.w3.org/2000/svg">
<circle cx="250" cy="250" r="250" fill="#1DB954"/>
<path d="M250.5 263.562C257.835 263.562 263.781 257.49 263.781 250C263.781 242.51 257.835 236.438 250.5 236.438C243.165 236.438 237.219 242.51 237.219 250C237.219 257.49 243.165 263.562 250.5 263.562Z" fill="black"/>
<path d="M250.5 60.125C148.234 60.125 64.5625 145.569 64.5625 250C64.5625 354.431 148.234 439.875 250.5 439.875C352.766 439.875 436.438 354.431 436.438 250C436.438 145.569 352.766 60.125 250.5 60.125ZM117.688 263.562C109.719 263.562 104.406 258.138 104.406 250C104.406 167.269 169.484 100.812 250.5 100.812C258.469 100.812 263.781 106.237 263.781 114.375C263.781 122.513 258.469 127.938 250.5 127.938C184.094 127.938 130.969 182.188 130.969 250C130.969 258.138 125.656 263.562 117.688 263.562ZM157.531 263.562C149.562 263.562 144.25 258.138 144.25 250C144.25 190.325 192.062 141.5 250.5 141.5C258.469 141.5 263.781 146.925 263.781 155.062C263.781 163.2 258.469 168.625 250.5 168.625C206.672 168.625 170.812 205.244 170.812 250C170.812 258.138 165.5 263.562 157.531 263.562ZM250.5 317.812C213.313 317.812 184.094 287.975 184.094 250C184.094 212.025 213.313 182.188 250.5 182.188C287.687 182.188 316.906 212.025 316.906 250C316.906 287.975 287.687 317.812 250.5 317.812Z" fill="black"/>
</svg>
